<svg xmlns="http://www.w3.org/2000/svg" viewBox="0 0 144.49 144.55"><defs><style>.cls-1{fill:#07a2e6;}</style></defs><title>资源 1</title><g id="图层_2" data-name="图层 2"><g id="图层_1-2" data-name="图层 1"><path class="cls-1" d="M97.26,77.2c-3.82-1.09-6.17.92-8.34,5.14C85.45,89.1,79,92.22,71.53,91.93S58,88.14,54.82,81.16c-1.4-3-3-4-6.31-4.09-5.64-.1-9.92.06-13.11,6.41-3.84,7.64-13.64,10.18-21.82,7.59A19.52,19.52,0,0,1,0,71.66,19.21,19.21,0,0,1,13.84,53.51a19.66,19.66,0,0,1,22.3,8c1.29,1.87,1.26,5.2,3.64,5.58,3.91.61,8,.24,12,.21,1.75,0,1.91-1.61,2.42-2.77,3.46-7.85,9.7-11.82,18-11.89,8.19-.07,14.42,3.91,17.81,11.44,1.29,2.84,2.94,3.61,5.69,3.3,1-.12,2,.12,3,0,2.81-.51,6.38,1.69,8.1-2.72s-2.29-5.51-4.14-7.54c-5.14-5.66-10.87-10.78-16.11-16.35C84,38,81.89,37.08,78,38.34,66.71,42,56.16,35.71,53,24.09,50.34,14,57.33,2.78,67.73.49A19.81,19.81,0,0,1,91.65,16.15c.7,3.39.67,6.88-.82,9.78-1.67,3.23-.75,5,1.53,7.2q10,9.7,19.77,19.74c1.77,1.83,3,2.11,5.49,1.18,9.1-3.43,17.9-.61,23.4,7.05a19.67,19.67,0,0,1-.4,22.87c-5.36,7.25-14.23,9.88-23.12,6.47-2.27-.87-3.47-.61-5.1,1.06q-10.11,10.36-20.52,20.44c-1.85,1.81-2.46,3.2-1.36,5.94a19.28,19.28,0,0,1-7.67,23.58,19.88,19.88,0,0,1-24.77-2.85c-6.42-6.37-7.42-16.24-2.47-24.35a19.18,19.18,0,0,1,23.11-7.78c3,1.08,4.74.52,6.86-1.7C91.65,98.39,98,92.28,104.2,86c1.58-1.62,4.13-2.73,2.6-6.16-1.45-3.26-3.85-2.5-6.22-2.6C99.75,77.17,98.91,77.2,97.26,77.2ZM72.14,29.66a9.9,9.9,0,0,0,10-10.13,10,10,0,0,0-19.95-.15A9.9,9.9,0,0,0,72.14,29.66Zm.16,32.66A9.86,9.86,0,0,0,62.24,72.43a10.44,10.44,0,0,0,9.88,10c5.07.06,9.89-4.66,10.06-9.85A9.88,9.88,0,0,0,72.3,62.32ZM115,72.54a10.21,10.21,0,0,0,9.84,9.93,10.45,10.45,0,0,0,10-10.44,10,10,0,0,0-10-9.71A9.68,9.68,0,0,0,115,72.54ZM19.47,62.33a10.25,10.25,0,0,0-10,9.8c-.1,5.08,5.18,10.4,10.25,10.34a10.22,10.22,0,0,0,9.83-10.54A9.77,9.77,0,0,0,19.47,62.33Zm52.31,72.32c5.86.17,10.28-3.91,10.41-9.6a10,10,0,1,0-19.95-.38A9.66,9.66,0,0,0,71.78,134.65Z"/></g></g></svg>